<?xml version="1.0" encoding="UTF-8"?>
<svg id="Camada_2" data-name="Camada 2" xmlns="http://www.w3.org/2000/svg" viewBox="0 0 404.62 404.72">
  <defs>
    <style>
      .cls-1 {
        opacity: .5;
      }

      .cls-2 {
        fill: #003566;
        font-family: Montserrat-Regular, Montserrat;
        font-size: 7px;
      }

      .cls-3, .cls-4, .cls-5, .cls-6, .cls-7, .cls-8 {
        fill: none;
        stroke: #003566;
        stroke-miterlimit: 10;
      }

      .cls-4 {
        stroke-width: .2px;
      }

      .cls-9 {
        letter-spacing: 0em;
      }

      .cls-5, .cls-6 {
        stroke-width: .5px;
      }

      .cls-5, .cls-7 {
        stroke-dasharray: 0 3;
        stroke-linecap: round;
      }

      .cls-10 {
        letter-spacing: -.02em;
      }

      .cls-8 {
        stroke-width: 3px;
      }
    </style>
  </defs>
  <g id="OBJECTS">
    <g>
      <g>
        <g class="cls-1">
          <line class="cls-4" x1=".26" y1=".1" x2=".26" y2="404.62"/>
          <line class="cls-4" x1="10.37" y1=".1" x2="10.37" y2="404.62"/>
          <line class="cls-4" x1="20.48" y1=".1" x2="20.48" y2="404.62"/>
          <line class="cls-4" x1="30.58" y1=".1" x2="30.58" y2="404.62"/>
          <line class="cls-4" x1="40.69" y1=".1" x2="40.69" y2="404.62"/>
          <line class="cls-4" x1="50.8" y1=".1" x2="50.8" y2="404.62"/>
          <line class="cls-4" x1="60.9" y1=".1" x2="60.9" y2="404.62"/>
          <line class="cls-4" x1="71.01" y1=".1" x2="71.01" y2="404.62"/>
          <line class="cls-4" x1="81.12" y1=".1" x2="81.12" y2="404.62"/>
          <line class="cls-4" x1="91.22" y1=".1" x2="91.22" y2="404.62"/>
          <line class="cls-4" x1="101.33" y1=".1" x2="101.33" y2="404.62"/>
          <line class="cls-4" x1="111.44" y1=".1" x2="111.44" y2="404.62"/>
          <line class="cls-4" x1="121.54" y1=".1" x2="121.54" y2="404.62"/>
          <line class="cls-4" x1="131.65" y1=".1" x2="131.65" y2="404.62"/>
          <line class="cls-4" x1="141.76" y1=".1" x2="141.76" y2="404.62"/>
          <line class="cls-4" x1="151.86" y1=".1" x2="151.86" y2="404.62"/>
          <line class="cls-4" x1="161.97" y1=".1" x2="161.97" y2="404.62"/>
          <line class="cls-4" x1="172.08" y1=".1" x2="172.08" y2="404.62"/>
          <line class="cls-4" x1="182.18" y1=".1" x2="182.18" y2="404.62"/>
          <line class="cls-4" x1="192.29" y1=".1" x2="192.29" y2="404.62"/>
          <line class="cls-4" x1="202.39" y1=".1" x2="202.39" y2="404.62"/>
          <line class="cls-4" x1="212.5" y1=".1" x2="212.5" y2="404.62"/>
          <line class="cls-4" x1="222.61" y1=".1" x2="222.61" y2="404.62"/>
          <line class="cls-4" x1="232.71" y1=".1" x2="232.71" y2="404.62"/>
          <line class="cls-4" x1="242.82" y1=".1" x2="242.82" y2="404.62"/>
          <line class="cls-4" x1="252.93" y1=".1" x2="252.93" y2="404.62"/>
          <line class="cls-4" x1="263.03" y1=".1" x2="263.03" y2="404.62"/>
          <line class="cls-4" x1="273.14" y1=".1" x2="273.14" y2="404.62"/>
          <line class="cls-4" x1="283.25" y1=".1" x2="283.25" y2="404.62"/>
          <line class="cls-4" x1="293.35" y1=".1" x2="293.35" y2="404.62"/>
          <line class="cls-4" x1="303.46" y1=".1" x2="303.46" y2="404.62"/>
          <line class="cls-4" x1="313.57" y1=".1" x2="313.57" y2="404.62"/>
          <line class="cls-4" x1="323.67" y1=".1" x2="323.67" y2="404.62"/>
          <line class="cls-4" x1="333.78" y1=".1" x2="333.78" y2="404.62"/>
          <line class="cls-4" x1="343.89" y1=".1" x2="343.89" y2="404.62"/>
          <line class="cls-4" x1="353.99" y1=".1" x2="353.99" y2="404.62"/>
          <line class="cls-4" x1="364.1" y1=".1" x2="364.1" y2="404.62"/>
          <line class="cls-4" x1="374.21" y1=".1" x2="374.21" y2="404.62"/>
          <line class="cls-4" x1="384.31" y1=".1" x2="384.31" y2="404.62"/>
          <line class="cls-4" x1="394.42" y1=".1" x2="394.42" y2="404.62"/>
          <line class="cls-4" x1="404.52" y1=".1" x2="404.52" y2="404.62"/>
        </g>
        <g class="cls-1">
          <line class="cls-4" x1="0" y1="404.62" x2="404.52" y2="404.62"/>
          <line class="cls-4" x1="0" y1="394.51" x2="404.52" y2="394.51"/>
          <line class="cls-4" x1="0" y1="384.4" x2="404.52" y2="384.4"/>
          <line class="cls-4" x1="0" y1="374.28" x2="404.52" y2="374.28"/>
          <line class="cls-4" x1="0" y1="364.17" x2="404.52" y2="364.17"/>
          <line class="cls-4" x1="0" y1="354.06" x2="404.52" y2="354.06"/>
          <line class="cls-4" x1="0" y1="343.95" x2="404.52" y2="343.94"/>
          <line class="cls-4" x1="0" y1="333.83" x2="404.52" y2="333.83"/>
          <line class="cls-4" x1="0" y1="323.72" x2="404.52" y2="323.72"/>
          <line class="cls-4" x1="0" y1="313.61" x2="404.52" y2="313.61"/>
          <line class="cls-4" x1="0" y1="303.49" x2="404.52" y2="303.49"/>
          <line class="cls-4" x1="0" y1="293.38" x2="404.52" y2="293.38"/>
          <line class="cls-4" x1="0" y1="283.27" x2="404.52" y2="283.27"/>
          <line class="cls-4" x1="0" y1="273.15" x2="404.52" y2="273.15"/>
          <line class="cls-4" x1="0" y1="263.04" x2="404.52" y2="263.04"/>
          <line class="cls-4" x1="0" y1="252.93" x2="404.52" y2="252.93"/>
          <line class="cls-4" x1="0" y1="242.81" x2="404.52" y2="242.81"/>
          <line class="cls-4" x1="0" y1="232.7" x2="404.52" y2="232.7"/>
          <line class="cls-4" x1="0" y1="222.59" x2="404.52" y2="222.59"/>
          <line class="cls-4" x1="0" y1="212.48" x2="404.52" y2="212.47"/>
          <line class="cls-4" x1="0" y1="202.36" x2="404.52" y2="202.36"/>
          <line class="cls-4" x1="0" y1="192.25" x2="404.52" y2="192.25"/>
          <line class="cls-4" x1="0" y1="182.14" x2="404.52" y2="182.14"/>
          <line class="cls-4" x1="0" y1="172.02" x2="404.52" y2="172.02"/>
          <line class="cls-4" x1="0" y1="161.91" x2="404.52" y2="161.91"/>
          <line class="cls-4" x1="0" y1="151.8" x2="404.52" y2="151.8"/>
          <line class="cls-4" x1="0" y1="141.68" x2="404.52" y2="141.68"/>
          <line class="cls-4" x1="0" y1="131.57" x2="404.52" y2="131.57"/>
          <line class="cls-4" x1="0" y1="121.46" x2="404.52" y2="121.46"/>
          <line class="cls-4" x1="0" y1="111.34" x2="404.52" y2="111.34"/>
          <line class="cls-4" x1="0" y1="101.23" x2="404.52" y2="101.23"/>
          <line class="cls-4" x1="0" y1="91.12" x2="404.52" y2="91.12"/>
          <line class="cls-4" x1="0" y1="81" x2="404.52" y2="81"/>
          <line class="cls-4" x1="0" y1="70.89" x2="404.52" y2="70.89"/>
          <line class="cls-4" x1="0" y1="60.78" x2="404.52" y2="60.78"/>
          <line class="cls-4" x1="0" y1="50.67" x2="404.52" y2="50.67"/>
          <line class="cls-4" x1="0" y1="40.55" x2="404.52" y2="40.55"/>
          <line class="cls-4" x1="0" y1="30.44" x2="404.52" y2="30.44"/>
          <line class="cls-4" x1="0" y1="20.33" x2="404.52" y2="20.33"/>
          <line class="cls-4" x1="0" y1="10.21" x2="404.52" y2="10.21"/>
          <line class="cls-4" x1="0" y1=".1" x2="404.52" y2=".1"/>
        </g>
      </g>
      <g>
        <g>
          <polyline class="cls-8" points="363.92 222.37 363.92 277.39 344.92 277.39"/>
          <polyline class="cls-8" points="363.92 171.43 363.92 65.26 283.42 65.26"/>
          <line class="cls-8" x1="127.75" y1="65.26" x2="193.23" y2="65.26"/>
          <polyline class="cls-8" points="40.61 183.29 40.61 65.26 76.82 65.26"/>
          <polyline class="cls-8" points="40.61 234.23 40.61 347.93 254.1 347.93 254.13 277.35 284.61 277.35"/>
          <rect class="cls-3" x="76.82" y="61.93" width="50.94" height="6.67"/>
          <rect class="cls-3" x="360.58" y="171.43" width="6.67" height="50.94"/>
          <rect class="cls-3" x="37.27" y="183.29" width="6.67" height="50.94"/>
          <rect class="cls-3" x="193.23" y="61.93" width="90.19" height="6.67"/>
          <polyline class="cls-8" points="163.96 225.22 163.96 247.76 40.61 247.76"/>
          <line class="cls-8" x1="163.96" y1="65.26" x2="163.96" y2="192.26"/>
          <g>
            <line class="cls-7" x1="163.96" y1="195.3" x2="163.96" y2="222.36"/>
            <path class="cls-3" d="M160.92,193.6h-28.33s.17,30.17,28.33,30.17"/>
          </g>
          <g>
            <line class="cls-7" x1="254.13" y1="181.45" x2="254.13" y2="154.39"/>
            <path class="cls-3" d="M257.17,183.15h28.33s-.17-30.17-28.33-30.17"/>
          </g>
          <g>
            <rect class="cls-3" x="46.65" y="72.43" width="25" height="25" rx="2.08" ry="2.08"/>
            <rect class="cls-3" x="132.92" y="72.43" width="25" height="25" rx="2.08" ry="2.08"/>
          </g>
          <g>
            <path class="cls-3" d="M85,79.59h34.57c1.28,0,2.32,1.04,2.32,2.32v57.7c0,1.28-1.04,2.32-2.32,2.32h-34.57c-1.28,0-2.32-1.04-2.32-2.32v-57.7c0-1.28,1.04-2.32,2.32-2.32Z"/>
            <g>
              <rect class="cls-3" x="87.45" y="83.39" width="12.31" height="12.31" rx="1.59" ry="1.59"/>
              <rect class="cls-3" x="104.81" y="83.39" width="12.31" height="12.31" rx="1.59" ry="1.59"/>
            </g>
            <line class="cls-3" x1="82.69" y1="99.15" x2="121.88" y2="99.15"/>
          </g>
          <g>
            <rect class="cls-3" x="54.71" y="217.26" width="6.59" height="24.17" rx="1.55" ry="1.55"/>
            <rect class="cls-3" x="108.35" y="217.26" width="6.59" height="24.17" rx="1.55" ry="1.55"/>
            <g>
              <rect class="cls-3" x="61.3" y="235.84" width="15.68" height="5.59" rx="1.55" ry="1.55"/>
              <rect class="cls-3" x="61.3" y="220.16" width="15.68" height="15.68" rx="1.55" ry="1.55"/>
            </g>
            <g>
              <rect class="cls-3" x="76.98" y="235.84" width="15.68" height="5.59" rx="1.55" ry="1.55"/>
              <rect class="cls-3" x="76.98" y="220.16" width="15.68" height="15.68" rx="1.55" ry="1.55"/>
            </g>
            <g>
              <rect class="cls-3" x="92.66" y="235.84" width="15.68" height="5.59" rx="1.55" ry="1.55"/>
              <rect class="cls-3" x="92.66" y="220.16" width="15.68" height="15.68" rx="1.55" ry="1.55"/>
            </g>
          </g>
          <g>
            <rect class="cls-3" x="197.61" y="256.69" width="6.88" height="25.21" rx="1.61" ry="1.61" transform="translate(402.09 538.6) rotate(180)"/>
            <rect class="cls-3" x="141.66" y="256.69" width="6.88" height="25.21" rx="1.61" ry="1.61" transform="translate(290.2 538.6) rotate(180)"/>
            <g>
              <rect class="cls-3" x="181.25" y="256.69" width="16.36" height="5.83" rx="1.61" ry="1.61" transform="translate(378.86 519.22) rotate(180)"/>
              <rect class="cls-3" x="181.25" y="262.53" width="16.36" height="16.36" rx="1.61" ry="1.61" transform="translate(378.86 541.41) rotate(180)"/>
            </g>
            <g>
              <rect class="cls-3" x="164.89" y="256.69" width="16.36" height="5.83" rx="1.61" ry="1.61" transform="translate(346.14 519.22) rotate(180)"/>
              <rect class="cls-3" x="164.89" y="262.53" width="16.36" height="16.36" rx="1.61" ry="1.61" transform="translate(346.14 541.41) rotate(180)"/>
            </g>
            <g>
              <rect class="cls-3" x="148.54" y="256.69" width="16.36" height="5.83" rx="1.61" ry="1.61" transform="translate(313.43 519.22) rotate(180)"/>
              <rect class="cls-3" x="148.54" y="262.53" width="16.36" height="16.36" rx="1.61" ry="1.61" transform="translate(313.43 541.41) rotate(180)"/>
            </g>
          </g>
          <ellipse class="cls-3" cx="79.83" cy="199.9" rx="23.75" ry="13.61"/>
          <g>
            <path class="cls-3" d="M314.75,276.26c0-28.17-30.17-28.33-30.17-28.33v28.33h60.33v-28.33s-30.17.17-30.17,28.33"/>
            <line class="cls-3" x1="284.58" y1="278.45" x2="344.92" y2="278.45"/>
          </g>
          <polyline class="cls-8" points="254.13 150.76 254.13 145.51 363.92 145.51"/>
          <line class="cls-8" x1="254.13" y1="277.35" x2="254.13" y2="185.59"/>
          <g>
            <rect class="cls-3" x="255.13" y="234.12" width="11.79" height="39.39"/>
            <g>
              <line class="cls-3" x1="266.92" y1="234.12" x2="255.13" y2="273.51"/>
              <line class="cls-3" x1="255.13" y1="234.12" x2="266.92" y2="273.51"/>
            </g>
            <g>
              <rect class="cls-3" x="255.13" y="192.26" width="11.79" height="39.39"/>
              <g>
                <line class="cls-3" x1="266.92" y1="192.26" x2="255.13" y2="231.65"/>
                <line class="cls-3" x1="255.13" y1="192.26" x2="266.92" y2="231.65"/>
              </g>
            </g>
          </g>
          <rect class="cls-5" x="291.92" y="162.92" width="44.33" height="80.33"/>
          <rect class="cls-3" x="344.92" y="74.76" width="19" height="69.5"/>
          <rect class="cls-3" x="324.33" y="124.93" width="20.58" height="20.58"/>
          <line class="cls-3" x1="324.33" y1="129.76" x2="344.92" y2="129.76"/>
          <line class="cls-3" x1="344.92" y1="124.93" x2="363.92" y2="124.93"/>
          <g>
            <rect class="cls-6" x="347.29" y="77.89" width="13.25" height="13.25"/>
            <g>
              <g>
                <circle class="cls-6" cx="350.79" cy="81.51" r="2.56"/>
                <circle class="cls-6" cx="357.04" cy="81.51" r="2.56"/>
              </g>
              <g>
                <circle class="cls-6" cx="350.79" cy="87.51" r="2.56"/>
                <circle class="cls-6" cx="357.04" cy="87.51" r="2.56"/>
              </g>
            </g>
          </g>
          <rect class="cls-6" x="347.29" y="102.39" width="13.25" height="20.37"/>
          <g>
            <circle class="cls-3" cx="290.57" cy="104.66" r="19.26"/>
            <g>
              <g>
                <path class="cls-3" d="M266.02,118.95h8.63c.9,0,1.64.73,1.64,1.64v10.26h-11.9v-10.26c0-.9.73-1.64,1.64-1.64Z" transform="translate(167.5 -154.57) rotate(45)"/>
                <line class="cls-3" x1="264.5" y1="122.32" x2="272.91" y2="130.74"/>
              </g>
              <g>
                <path class="cls-3" d="M306.49,78.48h8.63c.9,0,1.64.73,1.64,1.64v10.26h-11.9v-10.26c0-.9.73-1.64,1.64-1.64Z" transform="translate(470.88 363.89) rotate(-135)"/>
                <line class="cls-3" x1="316.64" y1="87" x2="308.23" y2="78.59"/>
              </g>
            </g>
            <g>
              <g>
                <path class="cls-3" d="M266.02,78.48h8.63c.9,0,1.64.73,1.64,1.64v10.26h-11.9v-10.26c0-.9.73-1.64,1.64-1.64Z" transform="translate(521.18 -47.03) rotate(135)"/>
                <line class="cls-3" x1="272.91" y1="78.59" x2="264.5" y2="87"/>
              </g>
              <g>
                <path class="cls-3" d="M306.49,118.95h8.63c.9,0,1.64.73,1.64,1.64v10.26h-11.9v-10.26c0-.9.73-1.64,1.64-1.64Z" transform="translate(2.72 256.36) rotate(-45)"/>
                <line class="cls-3" x1="308.23" y1="130.74" x2="316.64" y2="122.32"/>
              </g>
            </g>
          </g>
          <polyline class="cls-8" points="254.13 337.26 279.17 337.26 354.42 297.26 354.42 277.35"/>
          <polyline class="cls-8" points="254.13 327.93 274.54 327.93 344.92 291.08 344.92 276.26"/>
          <g>
            <rect class="cls-3" x="163.96" y="76.26" width="13.62" height="49.17"/>
            <rect class="cls-6" x="167.25" y="80.26" width="7.92" height="7.92"/>
            <circle class="cls-6" cx="170.77" cy="119.3" r="3.5"/>
            <circle class="cls-6" cx="171.21" cy="109.23" r="3.5"/>
          </g>
          <rect class="cls-5" x="188.42" y="74.76" width="66.71" height="62.5"/>
          <g>
            <rect class="cls-3" x="171.38" y="147.51" width="22.41" height="22.41" rx="1.3" ry="1.3" transform="translate(23.87 341.3) rotate(-90)"/>
            <rect class="cls-3" x="182.29" y="158.42" width="4.58" height="18.42" rx="1.05" ry="1.05" transform="translate(16.94 352.21) rotate(-90)"/>
            <rect class="cls-3" x="182.29" y="140.59" width="4.58" height="18.42" rx="1.05" ry="1.05" transform="translate(34.78 334.38) rotate(-90)"/>
            <line class="cls-3" x1="178.37" y1="165.34" x2="178.37" y2="152.09"/>
          </g>
          <g>
            <rect class="cls-3" x="221.24" y="292.06" width="22.41" height="22.41" rx="1.3" ry="1.3" transform="translate(535.7 70.82) rotate(90)"/>
            <rect class="cls-3" x="228.16" y="285.13" width="4.58" height="18.42" rx="1.05" ry="1.05" transform="translate(524.79 63.9) rotate(90)"/>
            <rect class="cls-3" x="228.16" y="302.97" width="4.57" height="18.42" rx="1.05" ry="1.05" transform="translate(542.63 81.73) rotate(90)"/>
            <line class="cls-3" x1="236.65" y1="296.63" x2="236.65" y2="309.89"/>
          </g>
          <g>
            <g>
              <line class="cls-7" x1="102.48" y1="254.72" x2="102.48" y2="281.79"/>
              <path class="cls-3" d="M99.43,253.03h-28.33s.17,30.17,28.33,30.17"/>
            </g>
            <line class="cls-8" x1="102.46" y1="285.59" x2="102.46" y2="347.93"/>
            <g>
              <rect class="cls-3" x="45.92" y="322.26" width="51.5" height="20.75" rx="2.5" ry="2.5"/>
              <path class="cls-3" d="M53.48,332.64c0,.95-.77,1.72-1.72,1.72s-1.72-.77-1.72-1.72.77-1.72,1.72-1.72,1.72.77,1.72,1.72Z"/>
            </g>
            <rect class="cls-3" x="40.61" y="253.03" width="18.27" height="18.27"/>
            <g>
              <path class="cls-3" d="M96.42,292.26h6.06v14.5h-6.06c-2.3,0-4.17-1.87-4.17-4.17v-6.17c0-2.3,1.87-4.17,4.17-4.17Z"/>
              <circle class="cls-3" cx="97.23" cy="299.51" r="1.44"/>
            </g>
            <path class="cls-3" d="M41.29,287.14h7.48c1.12,0,2.02.91,2.02,2.02v12.08c0,1.12-.91,2.02-2.02,2.02h-7.48v-16.12h0Z"/>
            <path class="cls-3" d="M57.61,300.49h-6.82v-10.58h6.82c2.92,0,5.29,2.37,5.29,5.29h0c0,2.92-2.37,5.29-5.29,5.29Z"/>
            <path class="cls-3" d="M60.71,295.2c0,1.39-1.86,2.52-4.15,2.52s-4.15-1.13-4.15-2.52,1.86-2.52,4.15-2.52,4.15,1.13,4.15,2.52Z"/>
            <circle class="cls-3" cx="45.44" cy="295.2" r="1.69"/>
          </g>
          <g>
            <rect class="cls-3" x="151.03" y="143.23" width="11.79" height="39.39"/>
            <g>
              <line class="cls-3" x1="162.82" y1="143.23" x2="151.03" y2="182.61"/>
              <line class="cls-3" x1="151.03" y1="143.23" x2="162.82" y2="182.61"/>
            </g>
          </g>
          <rect class="cls-5" x="76.29" y="72.43" width="51.98" height="105.5"/>
          <line class="cls-8" x1="163.96" y1="247.76" x2="215.08" y2="247.76"/>
          <rect class="cls-5" x="135.39" y="289.08" width="75.37" height="41.84"/>
          <rect class="cls-3" x="141.37" y="337.26" width="63.41" height="10.67"/>
          <rect class="cls-3" x="107.08" y="324.09" width="18.5" height="18.5" rx="1.81" ry="1.81"/>
          <rect class="cls-3" x="340.25" y="150.76" width="18.5" height="18.5" rx="1.81" ry="1.81"/>
          <rect class="cls-5" x="176.58" y="183.45" width="62.07" height="52.78"/>
        </g>
        <g>
          <g>
            <line class="cls-6" x1="40.61" y1="50.43" x2="363.92" y2="50.43"/>
            <line class="cls-6" x1="40.61" y1="47.43" x2="40.61" y2="53.43"/>
            <line class="cls-6" x1="76.82" y1="47.43" x2="76.82" y2="53.43"/>
            <line class="cls-6" x1="127.75" y1="47.43" x2="127.75" y2="53.43"/>
            <line class="cls-6" x1="193.23" y1="47.43" x2="193.23" y2="53.43"/>
            <line class="cls-6" x1="283.42" y1="47.43" x2="283.42" y2="53.43"/>
            <line class="cls-6" x1="363.92" y1="47.43" x2="363.92" y2="53.43"/>
          </g>
          <g>
            <line class="cls-6" x1="24.76" y1="347.93" x2="24.76" y2="65.26"/>
            <line class="cls-6" x1="21.76" y1="347.93" x2="27.76" y2="347.93"/>
            <line class="cls-6" x1="21.76" y1="234.23" x2="27.76" y2="234.23"/>
            <line class="cls-6" x1="21.76" y1="182.61" x2="27.76" y2="182.61"/>
            <line class="cls-6" x1="21.76" y1="65.26" x2="27.76" y2="65.26"/>
          </g>
          <g>
            <line class="cls-6" x1="379.98" y1="277.88" x2="379.98" y2="65.26"/>
            <line class="cls-6" x1="376.98" y1="277.88" x2="382.98" y2="277.88"/>
            <line class="cls-6" x1="376.98" y1="222.37" x2="382.98" y2="222.37"/>
            <line class="cls-6" x1="376.73" y1="171.43" x2="382.73" y2="171.43"/>
            <line class="cls-6" x1="376.98" y1="65.26" x2="382.98" y2="65.26"/>
          </g>
          <g>
            <line class="cls-6" x1="40.61" y1="359.55" x2="254.13" y2="359.55"/>
            <line class="cls-6" x1="40.61" y1="356.55" x2="40.61" y2="362.55"/>
            <line class="cls-6" x1="254.13" y1="356.55" x2="254.13" y2="362.55"/>
          </g>
          <line class="cls-6" x1="266.36" y1="359.55" x2="376.98" y2="295.2"/>
          <line class="cls-6" x1="264.72" y1="356.55" x2="268" y2="362.3"/>
          <line class="cls-6" x1="375.34" y1="292.32" x2="378.62" y2="298.07"/>
          <text class="cls-2" transform="translate(54.1 43.76)"><tspan class="cls-10" x="0" y="0">7</tspan><tspan x="3.98" y="0">0</tspan></text>
          <text class="cls-2" transform="translate(17.39 215.84) rotate(-90)"><tspan x="0" y="0">90</tspan></text>
          <text class="cls-2" transform="translate(97.76 43.76)"><tspan x="0" y="0">90</tspan></text>
          <text class="cls-2" transform="translate(387.47 190.59) rotate(90)"><tspan x="0" y="0">90</tspan></text>
          <text class="cls-2" transform="translate(155.6 43.76)"><tspan x="0" y="0">110</tspan></text>
          <text class="cls-2" transform="translate(134.48 370.76)"><tspan class="cls-9" x="0" y="0">3</tspan><tspan x="3.91" y="0">30</tspan></text>
          <text class="cls-2" transform="translate(329.69 335.34) rotate(-31.16)"><tspan x="0" y="0">150</tspan></text>
          <text class="cls-2" transform="translate(387.47 244.05) rotate(90)"><tspan x="0" y="0">100</tspan></text>
          <text class="cls-2" transform="translate(315.09 43.76)"><tspan x="0" y="0">115</tspan></text>
          <text class="cls-2" transform="translate(387.47 112.73) rotate(90)"><tspan x="0" y="0">115</tspan></text>
          <text class="cls-2" transform="translate(224.58 43.76)"><tspan x="0" y="0">115</tspan></text>
          <text class="cls-2" transform="translate(17.39 301.38) rotate(-90)"><tspan x="0" y="0">115</tspan></text>
          <text class="cls-2" transform="translate(17.39 124.28) rotate(-90)"><tspan x="0" y="0">125</tspan></text>
        </g>
      </g>
    </g>
  </g>
</svg>