<?xml version="1.0" encoding="UTF-8"?>
<svg id="Camada_2" data-name="Camada 2" xmlns="http://www.w3.org/2000/svg" viewBox="0 0 467.11 467.11">
  <defs>
    <style>
      .cls-1, .cls-2 {
        opacity: .5;
      }

      .cls-3, .cls-4, .cls-5, .cls-6, .cls-2, .cls-7, .cls-8 {
        fill: none;
        stroke: #003566;
      }

      .cls-3, .cls-4, .cls-6, .cls-2, .cls-7, .cls-8 {
        stroke-linecap: round;
      }

      .cls-3, .cls-5, .cls-6, .cls-2, .cls-7, .cls-8 {
        stroke-miterlimit: 10;
      }

      .cls-3, .cls-2 {
        stroke-width: .15px;
      }

      .cls-9 {
        opacity: .4;
      }

      .cls-4 {
        stroke-linejoin: round;
      }

      .cls-4, .cls-6 {
        stroke-width: .51px;
      }

      .cls-5 {
        stroke-width: .25px;
      }

      .cls-7 {
        stroke-width: .26px;
      }

      .cls-8 {
        stroke-width: 1.03px;
      }
    </style>
  </defs>
  <g id="Object">
    <g>
      <g>
        <g class="cls-9">
          <line class="cls-5" x1="8.55" x2="8.55" y2="467.11"/>
          <line class="cls-5" x1="18.55" x2="18.55" y2="467.11"/>
          <line class="cls-5" x1="28.55" x2="28.55" y2="467.11"/>
          <line class="cls-5" x1="38.55" x2="38.55" y2="467.11"/>
          <line class="cls-5" x1="48.55" x2="48.55" y2="467.11"/>
          <line class="cls-5" x1="58.55" x2="58.55" y2="467.11"/>
          <line class="cls-5" x1="68.55" x2="68.55" y2="467.11"/>
          <line class="cls-5" x1="78.55" x2="78.55" y2="467.11"/>
          <line class="cls-5" x1="88.55" x2="88.55" y2="467.11"/>
          <line class="cls-5" x1="98.55" x2="98.55" y2="467.11"/>
          <line class="cls-5" x1="108.55" x2="108.55" y2="467.11"/>
          <line class="cls-5" x1="118.55" x2="118.55" y2="467.11"/>
          <line class="cls-5" x1="128.55" x2="128.55" y2="467.11"/>
          <line class="cls-5" x1="138.55" x2="138.55" y2="467.11"/>
          <line class="cls-5" x1="148.55" x2="148.55" y2="467.11"/>
          <line class="cls-5" x1="158.55" x2="158.55" y2="467.11"/>
          <line class="cls-5" x1="168.55" x2="168.55" y2="467.11"/>
          <line class="cls-5" x1="178.55" x2="178.55" y2="467.11"/>
          <line class="cls-5" x1="188.55" x2="188.55" y2="467.11"/>
          <line class="cls-5" x1="198.55" x2="198.55" y2="467.11"/>
          <line class="cls-5" x1="208.55" x2="208.55" y2="467.11"/>
          <line class="cls-5" x1="218.55" x2="218.55" y2="467.11"/>
          <line class="cls-5" x1="228.55" x2="228.55" y2="467.11"/>
          <line class="cls-5" x1="238.55" x2="238.55" y2="467.11"/>
          <line class="cls-5" x1="248.55" x2="248.55" y2="467.11"/>
          <line class="cls-5" x1="258.55" x2="258.55" y2="467.11"/>
          <line class="cls-5" x1="268.55" x2="268.55" y2="467.11"/>
          <line class="cls-5" x1="278.55" x2="278.55" y2="467.11"/>
          <line class="cls-5" x1="288.55" x2="288.55" y2="467.11"/>
          <line class="cls-5" x1="298.55" x2="298.55" y2="467.11"/>
          <line class="cls-5" x1="308.55" x2="308.55" y2="467.11"/>
          <line class="cls-5" x1="318.55" x2="318.55" y2="467.11"/>
          <line class="cls-5" x1="328.55" x2="328.55" y2="467.11"/>
          <line class="cls-5" x1="338.55" x2="338.55" y2="467.11"/>
          <line class="cls-5" x1="348.55" x2="348.55" y2="467.11"/>
          <line class="cls-5" x1="358.55" x2="358.55" y2="467.11"/>
          <line class="cls-5" x1="368.55" x2="368.55" y2="467.11"/>
          <line class="cls-5" x1="378.55" x2="378.55" y2="467.11"/>
          <line class="cls-5" x1="388.55" x2="388.55" y2="467.11"/>
          <line class="cls-5" x1="398.55" x2="398.55" y2="467.11"/>
          <line class="cls-5" x1="408.55" x2="408.55" y2="467.11"/>
          <line class="cls-5" x1="418.55" x2="418.55" y2="467.11"/>
          <line class="cls-5" x1="428.55" x2="428.55" y2="467.11"/>
          <line class="cls-5" x1="438.55" x2="438.55" y2="467.11"/>
          <line class="cls-5" x1="448.55" x2="448.55" y2="467.11"/>
          <line class="cls-5" x1="458.55" x2="458.55" y2="467.11"/>
        </g>
        <g class="cls-9">
          <line class="cls-5" x1="467.11" y1="8.55" y2="8.55"/>
          <line class="cls-5" x1="467.11" y1="18.55" y2="18.55"/>
          <line class="cls-5" x1="467.11" y1="28.55" y2="28.55"/>
          <line class="cls-5" x1="467.11" y1="38.55" y2="38.55"/>
          <line class="cls-5" x1="467.11" y1="48.55" y2="48.55"/>
          <line class="cls-5" x1="467.11" y1="58.55" y2="58.55"/>
          <line class="cls-5" x1="467.11" y1="68.55" y2="68.55"/>
          <line class="cls-5" x1="467.11" y1="78.55" y2="78.55"/>
          <line class="cls-5" x1="467.11" y1="88.55" y2="88.55"/>
          <line class="cls-5" x1="467.11" y1="98.55" y2="98.55"/>
          <line class="cls-5" x1="467.11" y1="108.55" y2="108.55"/>
          <line class="cls-5" x1="467.11" y1="118.55" y2="118.55"/>
          <line class="cls-5" x1="467.11" y1="128.55" y2="128.55"/>
          <line class="cls-5" x1="467.11" y1="138.55" y2="138.55"/>
          <line class="cls-5" x1="467.11" y1="148.55" y2="148.55"/>
          <line class="cls-5" x1="467.11" y1="158.55" y2="158.55"/>
          <line class="cls-5" x1="467.11" y1="168.55" y2="168.55"/>
          <line class="cls-5" x1="467.11" y1="178.55" y2="178.55"/>
          <line class="cls-5" x1="467.11" y1="188.55" y2="188.55"/>
          <line class="cls-5" x1="467.11" y1="198.55" y2="198.55"/>
          <line class="cls-5" x1="467.11" y1="208.55" y2="208.55"/>
          <line class="cls-5" x1="467.11" y1="218.55" y2="218.55"/>
          <line class="cls-5" x1="467.11" y1="228.55" y2="228.55"/>
          <line class="cls-5" x1="467.11" y1="238.55" y2="238.55"/>
          <line class="cls-5" x1="467.11" y1="248.55" y2="248.55"/>
          <line class="cls-5" x1="467.11" y1="258.55" y2="258.55"/>
          <line class="cls-5" x1="467.11" y1="268.55" y2="268.55"/>
          <line class="cls-5" x1="467.11" y1="278.55" y2="278.55"/>
          <line class="cls-5" x1="467.11" y1="288.55" y2="288.55"/>
          <line class="cls-5" x1="467.11" y1="298.55" y2="298.55"/>
          <line class="cls-5" x1="467.11" y1="308.55" y2="308.55"/>
          <line class="cls-5" x1="467.11" y1="318.55" y2="318.55"/>
          <line class="cls-5" x1="467.11" y1="328.55" y2="328.55"/>
          <line class="cls-5" x1="467.11" y1="338.55" y2="338.55"/>
          <line class="cls-5" x1="467.11" y1="348.55" y2="348.55"/>
          <line class="cls-5" x1="467.11" y1="358.55" y2="358.55"/>
          <line class="cls-5" x1="467.11" y1="368.55" y2="368.55"/>
          <line class="cls-5" x1="467.11" y1="378.55" y2="378.55"/>
          <line class="cls-5" x1="467.11" y1="388.55" y2="388.55"/>
          <line class="cls-5" x1="467.11" y1="398.55" y2="398.55"/>
          <line class="cls-5" x1="467.11" y1="408.55" y2="408.55"/>
          <line class="cls-5" x1="467.11" y1="418.55" y2="418.55"/>
          <line class="cls-5" x1="467.11" y1="428.55" y2="428.55"/>
          <line class="cls-5" x1="467.11" y1="438.55" y2="438.55"/>
          <line class="cls-5" x1="467.11" y1="448.55" y2="448.55"/>
          <line class="cls-5" x1="467.11" y1="458.55" y2="458.55"/>
        </g>
      </g>
      <g>
        <line class="cls-2" x1="168.39" y1="185.93" x2="436.04" y2="112.8"/>
        <g>
          <line class="cls-7" x1="382.29" y1="44.87" x2="438.55" y2="145.21"/>
          <line class="cls-7" x1="438.55" y1="259.77" x2="268.6" y2="419.56"/>
          <line class="cls-7" x1="438.55" y1="253.39" x2="268.6" y2="389.98"/>
          <line class="cls-7" x1="29.84" y1="171.51" x2="158.21" y2="123.56"/>
          <line class="cls-7" x1="382.29" y1="189.88" x2="143.91" y2="123.56"/>
          <line class="cls-7" x1="29.84" y1="262.96" x2="167.27" y2="305.59"/>
          <line class="cls-7" x1="290.06" y1="389.98" x2="29.84" y2="275.14"/>
          <line class="cls-7" x1="290.06" y1="419.56" x2="29.84" y2="287.32"/>
          <line class="cls-7" x1="280.22" y1="173.07" x2="438.55" y2="205.74"/>
          <line class="cls-7" x1="297.22" y1="174.22" x2="29.84" y2="210.18"/>
          <line class="cls-7" x1="29.84" y1="260.44" x2="304.71" y2="335.46"/>
          <line class="cls-7" x1="283.98" y1="335.46" x2="438.55" y2="244.59"/>
          <line class="cls-7" x1="408.39" y1="53.57" x2="29.84" y2="189.4"/>
          <line class="cls-7" x1="167.27" y1="218.62" x2="29.84" y2="221.39"/>
          <line class="cls-7" x1="143.91" y1="218.62" x2="438.55" y2="223.77"/>
          <line class="cls-7" x1="150.87" y1="305.59" x2="438.55" y2="232.8"/>
        </g>
        <g class="cls-1">
          <line class="cls-3" x1="382.29" y1="41.74" x2="438.55" y2="142.08"/>
          <line class="cls-3" x1="438.55" y1="256.63" x2="268.6" y2="416.42"/>
          <line class="cls-3" x1="438.55" y1="250.25" x2="268.6" y2="386.84"/>
          <line class="cls-3" x1="29.84" y1="168.37" x2="158.21" y2="120.43"/>
          <line class="cls-3" x1="382.29" y1="186.74" x2="143.91" y2="120.43"/>
          <line class="cls-3" x1="29.84" y1="259.82" x2="167.27" y2="302.45"/>
          <line class="cls-3" x1="290.06" y1="386.84" x2="29.84" y2="272"/>
          <line class="cls-3" x1="290.06" y1="416.42" x2="29.84" y2="284.18"/>
          <line class="cls-3" x1="280.22" y1="169.93" x2="438.55" y2="202.6"/>
          <line class="cls-3" x1="297.22" y1="171.08" x2="29.84" y2="207.04"/>
          <line class="cls-3" x1="29.84" y1="257.31" x2="304.71" y2="332.32"/>
          <line class="cls-3" x1="283.98" y1="332.32" x2="438.55" y2="241.45"/>
          <line class="cls-3" x1="408.39" y1="50.44" x2="29.84" y2="186.27"/>
          <line class="cls-3" x1="167.27" y1="215.48" x2="29.84" y2="218.25"/>
          <line class="cls-3" x1="143.91" y1="215.48" x2="438.55" y2="220.63"/>
          <line class="cls-3" x1="150.87" y1="302.45" x2="438.55" y2="229.66"/>
        </g>
        <g class="cls-1">
          <line class="cls-3" x1="382.29" y1="47.28" x2="438.55" y2="147.62"/>
          <line class="cls-3" x1="438.55" y1="262.17" x2="268.6" y2="421.96"/>
          <line class="cls-3" x1="438.55" y1="255.79" x2="268.6" y2="392.38"/>
          <line class="cls-3" x1="29.84" y1="173.91" x2="158.21" y2="125.96"/>
          <line class="cls-3" x1="382.29" y1="192.28" x2="143.91" y2="125.96"/>
          <line class="cls-3" x1="29.84" y1="265.36" x2="167.27" y2="307.99"/>
          <line class="cls-3" x1="290.06" y1="392.38" x2="29.84" y2="277.54"/>
          <line class="cls-3" x1="290.06" y1="421.96" x2="29.84" y2="289.72"/>
          <line class="cls-3" x1="280.22" y1="175.47" x2="438.55" y2="208.14"/>
          <line class="cls-3" x1="297.22" y1="176.62" x2="29.84" y2="212.58"/>
          <line class="cls-3" x1="29.84" y1="262.85" x2="304.71" y2="337.86"/>
          <line class="cls-3" x1="283.98" y1="337.86" x2="438.55" y2="246.99"/>
          <line class="cls-3" x1="408.39" y1="55.98" x2="29.84" y2="191.8"/>
          <line class="cls-3" x1="167.27" y1="221.02" x2="29.84" y2="223.79"/>
          <line class="cls-3" x1="143.91" y1="221.02" x2="438.55" y2="226.17"/>
          <line class="cls-3" x1="150.87" y1="307.99" x2="438.55" y2="235.2"/>
        </g>
        <g>
          <polygon class="cls-7" points="34.35 170.11 34.35 289.62 38.13 291.52 38.13 168.7 34.35 170.11"/>
          <polyline class="cls-7" points="38.13 168.7 42.25 169.58 42.25 290.29 38.13 291.52"/>
        </g>
        <polygon class="cls-7" points="159.95 303.29 159.95 128.02 168.39 130.37 168.39 301.15 159.95 303.29"/>
        <polygon class="cls-7" points="159.95 128.02 151.83 130.52 151.83 300.79 159.95 303.29 159.95 128.02"/>
        <polygon class="cls-7" points="199.59 187.97 199.59 306.77 205.73 308.45 205.73 187.17 199.59 187.97"/>
        <polyline class="cls-7" points="205.73 187.17 211.96 188.14 211.96 306.2 205.73 308.45"/>
        <polygon class="cls-7" points="290.55 331.6 290.55 175.18 281.86 176.28 281.86 329.22 290.55 331.6"/>
        <polygon class="cls-7" points="290.55 175.18 298.44 176.83 298.44 326.96 290.55 331.6 290.55 175.18"/>
        <polygon class="cls-6" points="390.72 59.91 390.72 304.74 395.44 300.31 395.44 68.32 390.72 59.91"/>
        <polygon class="cls-6" points="390.72 59.91 383.36 62.55 383.36 303.72 390.72 304.74 390.72 59.91"/>
        <polygon class="cls-7" points="431.35 132.37 431.35 266.54 428.53 269.19 428.53 127.34 431.35 132.37"/>
        <polyline class="cls-7" points="428.53 127.34 424.1 128.83 424.1 269.19 428.53 269.19"/>
        <g>
          <polygon class="cls-7" points="255.75 108.34 255.75 286.16 262.11 287.32 262.11 106.06 255.75 108.34"/>
          <polygon class="cls-7" points="262.11 106.06 268.6 109.54 268.6 284.27 262.11 287.32 262.11 106.06"/>
        </g>
        <line class="cls-7" x1="396.91" y1="305.59" x2="29.84" y2="255.07"/>
        <polyline class="cls-6" points="424.1 295.15 363.25 288.86 363.25 190.11"/>
        <line class="cls-6" x1="355.63" y1="87.16" x2="287.54" y2="109.78"/>
        <line class="cls-6" x1="291.83" y1="105.14" x2="291.83" y2="175.18"/>
        <polyline class="cls-6" points="291.83 108.35 305.75 114.42 352.34 99.92"/>
        <line class="cls-6" x1="305.75" y1="114.42" x2="305.75" y2="177.53"/>
        <polyline class="cls-6" points="310.68 179.34 310.68 117.9 352.34 105.14"/>
        <polyline class="cls-6" points="310.68 117.9 314.16 119.93 352.34 108.33"/>
        <line class="cls-6" x1="314.16" y1="119.93" x2="314.16" y2="180.07"/>
        <line class="cls-6" x1="336.12" y1="110.11" x2="336.12" y2="184.59"/>
        <polyline class="cls-4" points="339.3 185.25 339.3 109.13 341.89 111.51 341.89 185.78"/>
        <polygon class="cls-6" points="401.82 110.41 401.82 175.18 419.9 184.37 419.9 134.19 401.82 110.41"/>
        <polyline class="cls-6" points="419.9 134.19 414.77 134.19 401.82 120.66"/>
        <line class="cls-6" x1="414.77" y1="134.19" x2="414.77" y2="181.6"/>
        <polyline class="cls-6" points="413.03 180.88 413.03 135.35 401.82 123.56"/>
        <polyline class="cls-6" points="413.03 135.35 411.63 135.35 401.82 125.93"/>
        <line class="cls-6" x1="411.63" y1="135.35" x2="411.63" y2="180.17"/>
        <polyline class="cls-6" points="273.73 327.34 273.73 196.69 216.78 202.64 216.78 311.46 231.38 305.59 231.38 201.11"/>
        <line class="cls-6" x1="231.38" y1="305.59" x2="273.73" y2="316.51"/>
        <polygon class="cls-6" points="250.44 211.53 236.13 212.69 236.13 239.22 250.44 239.22 250.44 211.53"/>
        <polygon class="cls-6" points="253.53 211.53 253.53 239.22 271.12 239.22 271.12 210.18 253.53 211.53"/>
        <polygon class="cls-6" points="236.13 242.66 250.44 242.66 250.44 268.18 236.13 267.21 236.13 242.66"/>
        <polygon class="cls-6" points="253.53 242.66 253.53 268.18 271.12 269.19 271.12 243.04 253.53 242.66"/>
        <polygon class="cls-6" points="307.37 196.69 307.37 221.47 357.08 222.34 357.08 202.93 307.37 196.69"/>
        <line class="cls-6" x1="351.5" y1="222.25" x2="351.5" y2="202.23"/>
        <line class="cls-6" x1="330.5" y1="199.59" x2="330.5" y2="221.88"/>
        <line class="cls-6" x1="334.56" y1="200.1" x2="334.56" y2="221.88"/>
        <line class="cls-6" x1="327.58" y1="199.59" x2="327.58" y2="221.84"/>
        <polygon class="cls-6" points="401.82 208.44 401.82 223.13 419.9 223.44 419.9 210.99 401.82 208.44"/>
        <line class="cls-6" x1="417.12" y1="210.6" x2="417.12" y2="223.39"/>
        <line class="cls-6" x1="410.86" y1="209.71" x2="410.86" y2="223.28"/>
        <line class="cls-6" x1="408.39" y1="209.52" x2="408.39" y2="223.24"/>
        <line class="cls-6" x1="406.85" y1="209.15" x2="406.85" y2="223.21"/>
        <polyline class="cls-8" points="34.35 167.26 34.35 277.13 276.21 383.87 390.72 291.7 363.25 288.86 290.55 331.6 290.55 175.18 173.9 190.8 173.9 299.76"/>
        <line class="cls-8" x1="390.72" y1="53.57" x2="390.72" y2="195.87"/>
        <polyline class="cls-8" points="152.11 125.84 152.11 218.93 159.95 218.93 159.95 303.29 173.9 299.76 216.78 311.46"/>
        <polyline class="cls-8" points="72.24 276.11 42.25 280.33 42.25 221.39 71.67 220.55 72.24 276.11 159.95 303.29"/>
        <polyline class="cls-8" points="34.35 277.13 34.35 289.62 276.13 412.48 276.13 383.87"/>
        <ellipse class="cls-6" cx="132.4" cy="393.76" rx="25.81" ry="9.89"/>
        <path class="cls-6" d="M114.01,363.5c0,2.73-5.78,4.95-12.91,4.95s-12.91-2.21-12.91-4.95,5.78-4.95,12.91-4.95,12.91,2.21,12.91,4.95Z"/>
        <ellipse class="cls-6" cx="401.82" cy="339.66" rx="12.91" ry="4.95"/>
        <path class="cls-6" d="M391.46,363.5c0,2.73-5.78,4.95-12.91,4.95s-12.91-2.21-12.91-4.95,5.78-4.95,12.91-4.95,12.91,2.21,12.91,4.95Z"/>
        <ellipse class="cls-6" cx="351.5" cy="393.76" rx="12.91" ry="4.95"/>
        <polyline class="cls-8" points="276.13 412.48 431.35 266.54 431.35 132.37 390.72 59.91 255.75 108.34 255.75 154.67 152.11 125.84 34.35 170.11"/>
        <line class="cls-8" x1="255.75" y1="154.67" x2="255.75" y2="179.81"/>
        <line class="cls-8" x1="390.72" y1="291.7" x2="390.72" y2="195.87"/>
        <polyline class="cls-8" points="290.55 175.18 362.84 190.11 363.25 288.86"/>
        <polygon class="cls-6" points="174.84 148.05 174.84 175.18 247.54 189.4 247.54 166.74 174.84 148.05"/>
        <polyline class="cls-6" points="247.54 166.74 241.67 168.22 241.97 188.31"/>
        <line class="cls-6" x1="241.67" y1="168.22" x2="174.84" y2="151.59"/>
        <polyline class="cls-6" points="239.66 187.86 239.66 169.48 174.84 153.53"/>
        <polyline class="cls-6" points="239.66 169.48 238.06 169.48 238.06 187.55"/>
        <line class="cls-6" x1="224.56" y1="165.76" x2="224.56" y2="184.91"/>
        <line class="cls-6" x1="222.31" y1="165.21" x2="222.31" y2="184.29"/>
        <line class="cls-6" x1="220.76" y1="165.21" x2="220.76" y2="184.23"/>
        <line class="cls-6" x1="199.59" y1="159.91" x2="199.59" y2="180.02"/>
        <line class="cls-6" x1="196.49" y1="179.42" x2="196.49" y2="158.86"/>
        <line class="cls-6" x1="194.67" y1="158.41" x2="194.67" y2="178.98"/>
        <line class="cls-8" x1="152.11" y1="218.93" x2="71.67" y2="220.55"/>
        <line class="cls-6" x1="130.76" y1="153.19" x2="130.76" y2="196.6"/>
        <line class="cls-6" x1="98.56" y1="164.75" x2="98.56" y2="200.93"/>
        <line class="cls-6" x1="79" y1="171.76" x2="79" y2="203.56"/>
        <line class="cls-6" x1="53.04" y1="181.08" x2="53.04" y2="207.86"/>
        <polyline class="cls-6" points="53.04 181.08 56.91 181.61 56.91 206.54"/>
        <line class="cls-6" x1="56.91" y1="181.61" x2="79.01" y2="174.51"/>
        <polyline class="cls-6" points="98.56 164.75 103.79 165.37 103.79 200.12"/>
        <line class="cls-6" x1="103.79" y1="165.37" x2="130.76" y2="156.09"/>
        <polyline class="cls-6" points="105.43 200.01 105.43 166.39 130.76 157.88"/>
        <line class="cls-6" x1="119.84" y1="161.55" x2="119.84" y2="198.07"/>
        <polyline class="cls-6" points="121.92 197.79 121.92 160.85 123.41 161.55 123.41 197.59"/>
        <polyline class="cls-6" points="105.43 166.39 106.59 166.87 106.59 199.85"/>
        <line class="cls-6" x1="106.59" y1="166.87" x2="119.84" y2="162.62"/>
        <line class="cls-6" x1="123.41" y1="161.55" x2="130.76" y2="159.04"/>
        <polyline class="cls-6" points="58.27 206.35 58.27 182.43 79 176.25"/>
        <line class="cls-6" x1="68.64" y1="179.34" x2="68.64" y2="204.96"/>
        <polyline class="cls-6" points="70.02 204.77 70.02 178.93 71.02 179.34 71.02 204.64"/>
        <polyline class="cls-6" points="58.27 182.43 59.2 182.77 59.2 206.23"/>
        <line class="cls-6" x1="59.2" y1="182.77" x2="68.64" y2="180.02"/>
        <line class="cls-6" x1="71.02" y1="179.34" x2="79" y2="176.97"/>
        <line class="cls-3" x1="38.13" y1="135.35" x2="38.13" y2="329.42"/>
        <line class="cls-3" x1="151.83" y1="99.06" x2="151.83" y2="388.53"/>
        <line class="cls-3" x1="159.95" y1="102.26" x2="159.95" y2="396.94"/>
        <line class="cls-3" x1="255.4" y1="96.16" x2="255.4" y2="424.73"/>
        <line class="cls-3" x1="390.72" y1="38.32" x2="390.72" y2="334.96"/>
        <line class="cls-3" x1="205.73" y1="76.11" x2="205.73" y2="322.83"/>
        <line class="cls-3" x1="431.35" y1="104.61" x2="431.35" y2="295.93"/>
        <line class="cls-3" x1="290.83" y1="152.15" x2="290.83" y2="343.47"/>
        <line class="cls-3" x1="29.84" y1="157.9" x2="406.85" y2="8.09"/>
        <line class="cls-3" x1="438.55" y1="127.34" x2="370.01" y2="8.09"/>
        <line class="cls-6" x1="352.34" y1="85.28" x2="352.34" y2="187.7"/>
        <polygon class="cls-6" points="79.72 226.17 151.83 226.17 151.83 272 79.72 261.94 79.72 226.17"/>
        <polyline class="cls-6" points="84.29 226.17 84.29 261.22 79.72 261.94"/>
        <line class="cls-6" x1="84.29" y1="261.22" x2="151.83" y2="270.11"/>
        <polyline class="cls-6" points="86.48 226.17 86.48 259.82 151.83 267.45"/>
        <line class="cls-6" x1="115.78" y1="226.17" x2="115.78" y2="263.24"/>
        <line class="cls-6" x1="121.19" y1="263.64" x2="121.19" y2="226.17"/>
        <line class="cls-6" x1="119.16" y1="226.17" x2="119.16" y2="263.64"/>
        <polyline class="cls-6" points="86.48 259.82 88.13 259.82 88.13 226.17"/>
      </g>
    </g>
  </g>
</svg>