<?xml version="1.0" encoding="UTF-8"?>
<svg id="Camada_2" data-name="Camada 2" xmlns="http://www.w3.org/2000/svg" xmlns:xlink="http://www.w3.org/1999/xlink" viewBox="0 0 1051.94 1051.94">
  <defs>
    <style>
      .cls-1 {
        fill: #fff;
        fill-rule: evenodd;
      }

      .cls-1, .cls-2 {
        stroke-width: 0px;
      }

      .cls-2 {
        fill: url(#Gradiente_sem_nome);
      }
    </style>
    <linearGradient id="Gradiente_sem_nome" data-name="Gradiente sem nome" x1="525.97" y1="76.42" x2="525.97" y2="1128.36" gradientTransform="translate(0 1051.94) scale(1 -1)" gradientUnits="userSpaceOnUse">
      <stop offset="0" stop-color="#78cd51"/>
      <stop offset="1" stop-color="#a0fc84"/>
    </linearGradient>
  </defs>
  <g id="Camada_1-2" data-name="Camada 1">
    <g id="Graphic_Elements" data-name="Graphic Elements">
      <circle class="cls-2" cx="525.97" cy="525.97" r="525.97"/>
      <g id="WA_Logo" data-name="WA Logo">
        <path class="cls-1" d="M778.97,279.43c-62.44-62.83-147.42-98.05-236-97.82-183.91,0-333.59,149.62-333.66,333.53-.08,58.54,15.29,116.06,44.54,166.76l-47.36,172.85,176.88-46.38c48.93,26.64,103.74,40.6,159.45,40.6h.15c183.89,0,333.58-149.64,333.66-333.55.27-88.55-34.89-173.53-97.66-235.99ZM542.97,792.63h-.12c-49.67,0-98.42-13.35-141.16-38.66l-10.12-6-105,27.52,28-102.3-6.6-10.49c-27.78-44.2-42.48-95.35-42.4-147.55.11-152.85,124.52-277.18,277.5-277.18,153.15.07,277.25,124.27,277.21,277.42-.06,152.87-124.47,277.24-277.31,277.24ZM695.08,584.97c-8.34-4.17-49.33-24.33-57-27.11s-13.2-4.18-18.76,4.17-21.54,27.11-26.4,32.68-9.72,6.25-18.06,2.08-35.2-13-67-41.36c-24.78-22.1-41.51-49.4-46.38-57.74s-.51-12.86,3.66-17c3.75-3.74,8.34-9.74,12.51-14.6s5.55-8.35,8.33-13.91,1.39-10.43-.69-14.6-18.76-45.19-25.71-61.88c-6.77-16.25-13.64-14.06-18.76-14.31-4.85-.24-10.42-.29-16-.29s-14.59,2.08-22.24,10.43-29.18,28.5-29.18,69.53,29.88,80.65,34.05,86.21,58.78,89.75,142.42,125.85c15.52,6.69,31.39,12.55,47.53,17.56,20,6.34,38.14,5.45,52.51,3.3,16-2.39,49.32-20.16,56.27-39.63s6.95-36.16,4.86-39.63-7.63-5.56-15.96-9.75Z"/>
      </g>
    </g>
  </g>
</svg>